<svg version="1.1" id="Layer_1" xmlns="http://www.w3.org/2000/svg" xmlns:xlink="http://www.w3.org/1999/xlink" x="0px" y="0px"
	 width="100%" viewBox="0 0 768 591" enable-background="new 0 0 768 591" xml:space="preserve">
<path fill="#FFFFFF" opacity="1.000000" stroke="none" 
	d="
M451.000000,592.000000 
	C302.166656,592.000000 153.833313,591.983521 5.500070,592.094055 
	C1.750611,592.096863 0.904313,591.249268 0.906366,587.499939 
	C1.012625,393.500000 1.012625,199.500000 0.906366,5.500051 
	C0.904313,1.750739 1.750830,0.905136 5.500038,0.906663 
	C258.500000,1.009692 511.500000,1.009692 764.499939,0.906663 
	C768.249146,0.905136 769.095703,1.750739 769.093689,5.500051 
	C768.987427,199.500000 768.987366,393.500000 769.093628,587.499939 
	C769.095703,591.249268 768.249634,592.098938 764.499878,592.094727 
	C660.166687,591.976685 555.833313,592.000000 451.000000,592.000000 
z"/>
<path fill="#445045" opacity="1.000000" stroke="none" 
	d="
M600.090027,345.999207 
	C600.068237,355.980530 600.542358,365.518707 596.852417,374.577820 
	C589.248413,393.246460 575.967468,405.506805 556.218750,410.320618 
	C545.812744,412.857117 535.890198,407.040314 533.216003,397.073914 
	C530.577393,387.240204 536.307007,377.068878 546.577087,374.095642 
	C556.153442,371.323242 561.440979,365.490173 562.454895,355.376190 
	C562.861389,351.322357 561.915833,351.350525 558.640198,352.234161 
	C534.867371,358.647491 510.352020,349.945587 496.639771,329.783630 
	C484.288544,311.622864 482.479156,292.105103 492.801147,272.620270 
	C503.494049,252.435196 520.949585,241.888840 543.952087,241.870956 
	C576.488586,241.845673 601.733948,269.183319 600.212830,301.534729 
	C599.525208,316.159210 600.092224,330.842682 600.090027,345.999207 
z"/>
<path fill="#445045" opacity="1.000000" stroke="none" 
	d="
M239.604034,241.684570 
	C241.250992,243.652588 242.818130,242.767990 244.423294,242.360245 
	C273.511169,234.971344 302.940765,250.136414 312.784729,277.562500 
	C322.729980,305.270874 310.071594,334.755890 282.685364,347.672333 
	C246.240738,364.861023 202.724869,337.661591 202.217133,297.155243 
	C201.903839,272.160889 202.115280,247.159439 202.164978,222.161316 
	C202.186005,211.586517 209.076157,203.752411 219.090881,202.652283 
	C229.111252,201.551544 237.092941,207.692139 239.401489,218.696503 
	C238.826950,226.480453 238.699875,233.906647 239.604034,241.684570 
z"/>
<path fill="#9ED5CB" opacity="1.000000" stroke="none" 
	d="
M459.851685,255.128906 
	C472.832336,266.716034 478.765503,281.433319 478.725983,297.951782 
	C478.652985,328.468445 456.081146,352.838806 425.942078,354.003021 
	C415.797028,354.394867 406.030243,353.084625 397.060486,347.996185 
	C395.256622,346.972870 393.696289,347.191437 391.871033,347.862030 
	C384.574127,350.542877 377.230408,353.096252 369.023315,356.009430 
	C371.288605,349.604950 373.134094,343.843781 375.371399,338.239014 
	C377.068939,333.986542 377.158325,330.495819 374.731598,326.114929 
	C359.759644,299.086853 367.834625,264.860443 394.999969,248.664246 
	C414.757294,236.884781 442.896057,239.531998 459.851685,255.128906 
z"/>
<path fill="#445045" opacity="1.000000" stroke="none" 
	d="
M322.753479,234.001404 
	C322.751740,229.840439 322.690399,226.177902 322.759277,222.517853 
	C322.976318,210.985306 330.738525,202.643433 341.341217,202.486450 
	C352.111267,202.327011 360.256348,210.765335 360.294434,222.602936 
	C360.396179,254.223816 360.328796,285.845245 360.328613,317.466431 
	C360.328583,322.459259 360.421997,327.454163 360.309723,332.444458 
	C360.048309,344.063751 352.269623,352.168854 341.521729,352.144775 
	C330.840363,352.120850 322.828491,343.885193 322.790497,332.360138 
	C322.682953,299.740753 322.753265,267.120728 322.753479,234.001404 
z"/>
<path fill="#445045" opacity="1.000000" stroke="none" 
	d="
M192.835037,343.707031 
	C186.974258,351.791748 179.104614,354.420013 170.889313,351.294922 
	C163.511780,348.488525 158.446609,340.253784 159.463272,332.718903 
	C160.673752,323.747589 166.816193,317.470245 175.782883,316.572937 
	C182.574005,315.893402 188.204361,318.463684 192.100861,324.133942 
	C196.331757,330.290833 196.625214,336.781708 192.835037,343.707031 
z"/>
<path fill="#313E32" opacity="1.000000" stroke="none" 
	d="
M239.827057,241.567871 
	C238.994659,241.804596 238.091187,241.439621 238.112595,240.506454 
	C238.274185,233.462784 237.245285,226.386215 238.990234,219.214828 
	C240.463409,226.378357 239.536682,233.751968 239.827057,241.567871 
z"/>
<path fill="#FDFDFD" opacity="1.000000" stroke="none" 
	d="
M543.911377,279.767914 
	C555.462830,281.050110 562.760498,289.274994 562.162659,299.864441 
	C561.604553,309.750061 552.882202,317.496765 542.631897,317.210724 
	C532.608582,316.930969 524.447144,308.640533 524.254517,298.542816 
	C524.061951,288.445740 532.159119,280.526886 543.911377,279.767914 
z"/>
<path fill="#FDFDFD" opacity="1.000000" stroke="none" 
	d="
M240.773315,292.046875 
	C244.441452,281.902069 251.824829,276.952637 261.393982,277.898315 
	C269.718567,278.721008 276.915466,285.672699 277.968536,294.049988 
	C278.963196,301.962738 275.801453,308.111359 269.233215,312.276306 
	C262.624542,316.466888 255.591309,316.545898 249.020645,312.208679 
	C241.991531,307.568848 239.032715,300.895111 240.773315,292.046875 
z"/>
</svg>